<?xml version="1.0" encoding="UTF-8" standalone="no"?>
<svg
   xmlns:dc="http://purl.org/dc/elements/1.1/"
   xmlns:cc="http://creativecommons.org/ns#"
   xmlns:rdf="http://www.w3.org/1999/02/22-rdf-syntax-ns#"
   xmlns:svg="http://www.w3.org/2000/svg"
   xmlns="http://www.w3.org/2000/svg"
   xml:space="preserve"
   enable-background="new 0 0 1000 1000"
   viewBox="0 0 48 48"
   height="48"
   width="48"
   y="0px"
   x="0px"
   id="Layer_1"
   version="1.1"><metadata
   id="metadata30"><rdf:RDF><cc:Work
       rdf:about=""><dc:format>image/svg+xml</dc:format><dc:type
         rdf:resource="http://purl.org/dc/dcmitype/StillImage" /><dc:title></dc:title></cc:Work></rdf:RDF></metadata><defs
   id="defs28" />
<linearGradient
   gradientTransform="matrix(0.09,0,0,0.09,-0.75,-0.75)"
   y2="132.78748"
   x2="867.21399"
   y1="867.21387"
   x1="132.7876"
   gradientUnits="userSpaceOnUse"
   id="SVGID_1_">
	<stop
   id="stop4"
   style="stop-color:#000229"
   offset="0.0945451" />
	<stop
   id="stop6"
   style="stop-color:#000832"
   offset="0.2100622" />
	<stop
   id="stop8"
   style="stop-color:#021749"
   offset="0.3957825" />
	<stop
   id="stop10"
   style="stop-color:#03306F"
   offset="0.6272703" />
	<stop
   id="stop12"
   style="stop-color:#04397D"
   offset="0.700389" />
	<stop
   id="stop14"
   style="stop-color:#095A9B"
   offset="1" />
</linearGradient>
<path
   style="fill:url(#SVGID_1_);stroke-width:0.09"
   id="path16"
   d="m 46.5,41.414 c 0,0.91594 -0.742535,1.65848 -1.658477,1.65848 H 3.158477 C 2.242535,43.07248 1.5,42.32994 1.5,41.414 V 6.58599 C 1.5,5.67005 2.242535,4.92752 3.158477,4.92752 H 44.841523 C 45.757465,4.92752 46.5,5.67005 46.5,6.58599 Z" />
<g
   transform="matrix(0.05528255,0,0,0.05528255,-3.641275,-3.6412756)"
   id="g18">
	<path
   style="fill:#ffffff"
   id="path20"
   d="m 387.83594,453.19531 54.16504,91.43946 89.81152,0.0586 v 123.0293 H 430.90625 c -45.45801,0 -83.43945,-4.71875 -113.81738,-47.35547 -20.20996,-28.36328 -24.47754,-56.54297 -26.62207,-99.36328 -0.19825,-4.01563 -0.56446,-23.42774 -0.56446,-23.50977 0.008,-54.50195 12.22754,-96.05762 33.56446,-123.49023 24.5,-31.5 64.45703,-45.625 107.43945,-45.625 H 572.9043 l 56.49609,-89.71289 H 430.90625 c -91.89063,0 -157.35449,30.20703 -196.36719,86.18554 -30.14453,43.10352 -45.2041,105.88477 -45.2041,186.12696 0,1.7832 0.0576,4.08007 0.0762,5.84765 0.002,0 0.004,0 0.006,0 0.86133,73.50391 17.8418,131.56836 51.04981,173.0586 25.68066,31.71679 60.01562,53.07031 102.99804,63.96875 19.75391,4.95507 46.42481,7.48046 80.02832,7.48046 H 630.82617 V 453.19531 Z" />
	<g
   id="g22">
		<path
   style="fill:#ffffff"
   id="path24"
   d="m 810.66504,711.35547 v 49.97851 H 653.93066 V 748.50781 C 738.7207,648.50195 750.39844,632.3418 750.39844,614.25 c 0,-11.42773 -7.5293,-19.08984 -18.32227,-19.08984 -11.8291,0 -19.04199,7.97851 -19.04199,20.66406 v 4.07226 H 657.32812 V 616 c 0,-42.61133 27.92774,-70.77539 74.06641,-70.77539 44.70117,0 75.56543,27.48437 75.56543,67.04687 0,26.51758 -9.81055,46.875 -54.88183,99.08399 z" />
	</g>
</g>
</svg>